# xmcd
#
# Track frame offsets:
#	150
#	12361
#	33418
#	47219
#	66021
#	82865
#	99792
#	114169
#	133548
#	146388
#	162276
#	180144
#	194896
#	202031
#	230661
#	249134
#
# Disc length: 3537 seconds
# Revision: 0
# Processed by: cddbd v1.5.2PL0 Copyright (c) Steve Scherf et al.
# Submitted via: dBpowerAMP V12.0
#
DISCID=c90dcf10
DTITLE=Eric Bibb - Eric Bibb In 50 Songs - Disc 3
DYEAR=2014
DGENRE=
TTITLE0=Stagolee
TTITLE1=Goin' Down Slow
TTITLE2=Drinkin' Gourd
TTITLE3=The Right Thing
TTITLE4=Shine On
TTITLE5=Faded Jeans
TTITLE6=The Way You Are
TTITLE7=Don't Ever Let Nobody Drag Your Spirit Down
TTITLE8=Bourgeois Blues
TTITLE9=Diamond Days
TTITLE10=Send Us Brighter Days
TTITLE11=Water
TTITLE12=Weepin' Mary
TTITLE13=Wayfaring Stranger
TTITLE14=Shingle By Shingle
TTITLE15=Needed Time
EXTD=
EXTT0=
EXTT1=
EXTT2=
EXTT3=
EXTT4=
EXTT5=
EXTT6=
EXTT7=
EXTT8=
EXTT9=
EXTT10=
EXTT11=
EXTT12=
EXTT13=
EXTT14=
EXTT15=
PLAYORDER=
